# xmcd CD database file
#
# Track frame offsets:
#	150
#	20492
#	42100
#	61900
#
# Disc length: 1095 seconds
#
# Revision: 0
# Processed by: cddbd v1.5PL3 Copyright (c) Steve Scherf et al.
# Submitted via: CDex 1.50
#
DISCID=29044504
DTITLE=なっちゃん - ガラスのクツ〜なっちゃん
DYEAR=1900
DGENRE=
TTITLE0=ガラスのクツ〜なっちゃん
TTITLE1=ガラスのクツ〜なっちゃん(Za downtown human beat remix)
TTITLE2=ガラスのクツ〜なっちゃん(jelly fish remix)
TTITLE3=ガラスのクツ〜なっちゃん(Instrumental)
EXTD=
EXTT0=
EXTT1=
EXTT2=
EXTT3=
PLAYORDER=
